<?xml version="1.0" encoding="UTF-8"?>
<svg width="18px" height="16px" viewBox="10 -10 95 105" xmlns="http://www.w3.org/2000/svg">
 <path d="m34.25 8.75l1.25-0.75 0.5 0.5q0.5 0.5 2.5 8t5.75 14.25 4.75 6.75h1l2-2.5q2-2.5 3.75-4.75t3.25-4.25 2.25-2.75l0.75-0.75 2.5-0.5q2.5-0.5 9.5 0.75l7 1.25-0.75 3q-0.75 3-3.25 6t-4 5-4.5 5.5-4.5 5.5-1.5 3.5v1.5l3.25 2.75q3.25 2.75 9.75 5.75t18.5 6l12 3-5.5 3q-5.5 3-8.5 4t-8.5 0.5-13-2.5-10.5-3.5-6-3.5-4.5-2h-1.5l-6 5.5q-6 5.5-9 7.5t-5.5 4-7 4-6 2h-1.5l0.75-1.25q0.75-1.25 2.75-4.25t4-5.5 4.5-6.5 5-7 4.5-6l2-3-0.5-2q-0.5-2-2-4t-5.5-9.5-6-12.5-2-6.5v-1.5l6.25-5.75q6.25-5.75 7.5-6.5z" fill="#000000" fill-rule="evenodd" stroke-width="0"/>
</svg>